<svg id="visual" viewBox="0 0 540 960" width="540" height="960" xmlns="http://www.w3.org/2000/svg" xmlns:xlink="http://www.w3.org/1999/xlink" version="1.1"><rect x="0" y="0" width="540" height="960" fill="#001220"></rect><defs><linearGradient id="grad1_0" x1="0%" y1="0%" x2="100%" y2="100%"><stop offset="30%" stop-color="#001220" stop-opacity="1"></stop><stop offset="70%" stop-color="#001220" stop-opacity="1"></stop></linearGradient></defs><defs><linearGradient id="grad2_0" x1="0%" y1="0%" x2="100%" y2="100%"><stop offset="30%" stop-color="#001220" stop-opacity="1"></stop><stop offset="70%" stop-color="#001220" stop-opacity="1"></stop></linearGradient></defs><g transform="translate(540, 0)"><path d="M0 378C-22.2 348.6 -44.5 319.1 -70.5 309.1C-96.6 299 -126.5 308.3 -141.9 294.6C-157.2 281 -158.1 244.3 -188.9 236.9C-219.8 229.5 -280.7 251.2 -295.5 235.7C-310.4 220.2 -279.2 167.4 -285.6 137.5C-292 107.7 -336.1 100.8 -357.8 81.7C-379.5 62.6 -378.7 31.3 -378 0L0 0Z" fill="#FBAE3C"></path></g><g transform="translate(0, 960)"><path d="M0 -378C22.8 -344.7 45.7 -311.3 67.6 -296.4C89.6 -281.4 110.8 -284.9 137.5 -285.6C164.3 -286.4 196.6 -284.4 215.1 -269.7C233.6 -255 238.3 -227.6 264.3 -210.7C290.2 -193.9 337.3 -187.7 340.6 -164C343.8 -140.3 303.3 -99.2 302.2 -69C301.2 -38.7 339.6 -19.4 378 0L0 0Z" fill="#FBAE3C"></path></g></svg>